<svg width="40" height="40" viewBox="0 0 40 40" fill="none" xmlns="http://www.w3.org/2000/svg">
<path d="M19.9946 13.3306C16.3222 13.3306 13.3252 16.3276 13.3252 20.0001C13.3252 23.6726 16.3222 26.6697 19.9946 26.6697C23.667 26.6697 26.664 23.6726 26.664 20.0001C26.664 16.3276 23.667 13.3306 19.9946 13.3306ZM39.9978 20.0001C39.9978 17.2382 40.0228 14.5014 39.8677 11.7445C39.7126 8.54231 38.9821 5.70037 36.6406 3.35878C34.294 1.01218 31.4572 0.286683 28.2551 0.131577C25.4932 -0.0235289 22.7564 0.00148824 19.9996 0.00148824C17.2378 0.00148824 14.501 -0.0235289 11.7442 0.131577C8.5421 0.286683 5.70023 1.01718 3.35869 3.35878C1.01215 5.70538 0.286675 8.54231 0.131574 11.7445C-0.0235283 14.5064 0.0014882 17.2432 0.0014882 20.0001C0.0014882 22.757 -0.0235283 25.4989 0.131574 28.2557C0.286675 31.4579 1.01716 34.2999 3.35869 36.6415C5.70524 38.9881 8.5421 39.7136 11.7442 39.8687C14.506 40.0238 17.2428 39.9988 19.9996 39.9988C22.7614 39.9988 25.4982 40.0238 28.2551 39.8687C31.4572 39.7136 34.299 38.9831 36.6406 36.6415C38.9871 34.2949 39.7126 31.4579 39.8677 28.2557C40.0278 25.4989 39.9978 22.762 39.9978 20.0001V20.0001ZM19.9946 30.2621C14.3159 30.2621 9.73288 25.679 9.73288 20.0001C9.73288 14.3212 14.3159 9.73813 19.9946 9.73813C25.6734 9.73813 30.2564 14.3212 30.2564 20.0001C30.2564 25.679 25.6734 30.2621 19.9946 30.2621ZM30.6766 11.7145C29.3508 11.7145 28.2801 10.6437 28.2801 9.31784C28.2801 7.99194 29.3508 6.92121 30.6766 6.92121C32.0025 6.92121 33.0732 7.99194 33.0732 9.31784C33.0736 9.63268 33.0119 9.94451 32.8916 10.2355C32.7713 10.5264 32.5948 10.7908 32.3722 11.0134C32.1495 11.236 31.8852 11.4125 31.5942 11.5328C31.3033 11.6531 30.9915 11.7149 30.6766 11.7145V11.7145Z" fill="white"/>
</svg>
