<svg width="80" height="55" viewBox="0 0 80 55" fill="none" xmlns="http://www.w3.org/2000/svg">
<g clip-path="url(#clip0_4_21)">
<path d="M29.4766 20.4589C34.2247 20.4589 38.4314 19.2763 42.453 17.6218C44.989 16.5803 47.046 14.9773 48.8256 13.1329C49.7942 12.1294 50.7411 11.1123 51.5738 10.0246C51.8513 9.66119 52.2295 9.50388 52.7792 9.49031C54.5424 9.45234 56.2566 9.13771 57.9409 8.72002C58.1858 8.65764 58.4116 8.53287 58.7817 8.38098C58.1477 8.1857 57.6634 8.37556 57.2144 8.42438C54.3655 8.72816 51.5057 8.80953 48.6433 8.74714C45.3019 8.67662 41.9605 8.55999 38.6245 8.37556C35.343 8.19383 32.0669 7.95515 28.799 7.64866C25.7978 7.36658 22.7666 7.23639 19.8334 6.56917C19.4497 6.48237 18.8211 6.54204 18.8293 6.06468C18.8375 5.59545 19.4415 5.57375 19.8687 5.47069C21.036 5.19132 22.2496 5.15606 23.4414 5.13707C26.6494 5.08554 29.8629 5.03401 33.0656 5.15063C35.6777 5.24557 38.2926 5.38389 40.902 5.5629C42.5999 5.67953 44.306 5.7609 46.0093 5.8477C48.695 5.98331 51.3833 6.08095 54.0608 6.31421C55.5165 6.44169 56.9858 6.46881 58.4443 6.58815C60.3054 6.74004 62.1666 6.91363 64.0087 7.20113C64.3951 7.2608 64.5883 7.40727 64.4631 7.79513C63.606 10.4776 62.251 12.9621 60.4905 15.3136C58.9858 17.3234 57.1681 19.0946 55.0866 20.6677C52.2159 22.8348 48.9181 24.3591 45.0379 24.7117C42.7088 24.9233 40.3986 24.7334 38.2001 23.8601C35.6315 22.8403 33.0084 21.9181 30.4071 20.9633C30.1187 20.8521 29.8548 20.7328 29.4766 20.4589ZM59.0211 8.24808C59.0402 8.23994 59.0592 8.23181 59.0756 8.22367C59.0592 8.21282 59.0456 8.19383 59.0266 8.19383C59.0102 8.19383 58.9912 8.2074 58.9722 8.21553C58.9885 8.22638 59.0048 8.23723 59.0211 8.24808Z" fill="#E8BBBD"/>
<path d="M22.3911 35.9705C22.4972 33.128 22.304 30.2421 21.5285 27.4024C21.0904 25.8021 20.4047 24.2697 19.6374 22.7589C18.5871 20.6921 17.3681 18.6932 16.2226 16.6671C16.0049 16.2819 15.8498 15.9646 16.5981 15.9456C16.7368 15.9429 16.9028 15.9049 17.0062 15.8344C17.8742 15.2431 18.4701 15.7124 19.1014 16.1789C21.0796 17.6381 23.2754 18.8369 25.5855 19.8812C26.5732 20.3287 27.1093 21.1098 27.7569 21.796C29.852 24.0147 31.7921 26.331 33.49 28.7856C35.5144 31.7176 37.0055 34.8286 37.694 38.1729C38.1021 40.1502 38.1511 42.16 37.8871 44.1671C37.8246 44.6445 37.4817 44.5305 37.1579 44.441C35.3566 43.9284 33.5553 43.4239 31.7649 42.8869C29.0929 42.0868 26.429 41.2595 23.7625 40.4458C23.6046 40.397 23.4468 40.3427 23.2863 40.3021C22.6006 40.1285 22.3176 39.7949 22.3693 39.1439C22.4537 38.1078 22.3911 37.069 22.3911 35.9705Z" fill="#E8BBBC"/>
<path d="M29.8358 21.834C30.8588 22.07 31.716 22.5202 32.6302 22.8457C33.9363 23.3095 35.2641 23.7353 36.5376 24.2534C38.5021 25.0535 40.3524 26.0326 42.2163 26.9819C44.2135 28.0018 46.1209 29.1274 47.797 30.5079C50.3466 32.6045 52.1234 35.0754 52.956 38.0183C53.6363 40.4187 53.8349 42.8489 53.8404 45.3062C53.8404 46.0304 53.9601 46.7573 53.9547 47.4896C53.9519 47.8992 53.8431 48.0456 53.269 47.9643C48.9072 47.3459 44.6244 46.4481 40.3742 45.4283C39.264 45.1625 39.2667 45.0675 39.4055 44.1047C39.5932 42.7919 39.5551 41.4629 39.4409 40.1501C39.2858 38.3519 38.8042 36.597 38.1838 34.872C37.4028 32.6967 36.3498 30.6191 35.0356 28.6364C33.5118 26.3391 31.7921 24.1476 29.882 22.0645C29.8466 22.0266 29.8602 21.9588 29.8358 21.834Z" fill="#EDC9CC"/>
<path d="M20.8047 35.7915C20.8047 36.8493 20.8047 37.9044 20.8047 38.9622C20.8047 39.2144 20.802 39.426 20.3721 39.2632C16.8675 37.9315 13.3574 36.6079 10.3099 34.5872C9.83913 34.2753 9.44187 33.882 9.01195 33.5267C8.73713 33.2989 8.64734 33.0195 8.64462 32.6968C8.6419 30.5893 8.54122 28.4737 8.94665 26.3825C9.09902 25.5933 9.56431 24.907 10.1439 24.2751C10.7915 23.5699 10.6908 22.9786 9.86362 22.4497C8.5385 21.6062 7.30861 20.6704 6.08416 19.7293C4.55496 18.5548 3.08562 17.3316 1.79315 15.9727C1.03127 15.1726 0.234018 14.3887 0.0326646 13.3093C-0.0761753 12.7234 0.0898055 12.2135 0.473466 11.7632C1.06392 11.0689 1.80947 10.4966 2.60945 9.97584C3.4584 9.42524 4.38354 9.53373 5.35765 10.1955C6.7889 11.1693 7.8909 12.4115 9.22963 13.4557C10.5493 14.4837 11.8826 15.5225 13.7329 15.848C13.9832 15.8914 13.9968 16.0622 14.0839 16.1951C15.1315 17.8117 16.0893 19.4662 16.9926 21.1424C17.7164 22.485 18.4756 23.8194 19.0551 25.2135C19.8007 27.0118 20.2333 28.8643 20.5326 30.752C20.7993 32.431 20.8265 34.1099 20.8047 35.7915ZM13.2295 16.9627C10.2228 15.4981 8.07049 13.4205 5.86648 11.294C5.80662 13.2387 10.5167 16.8841 13.2295 16.9627Z" fill="#EDC9CC"/>
<path d="M76.5416 9.71276C76.3376 11.5842 75.943 13.3906 75.2873 15.1482C74.1553 18.1833 72.2071 20.8522 69.9514 23.3583C67.9732 25.5553 65.7365 27.5732 62.9258 29.046C61.5408 29.7729 60.0524 30.3533 58.4252 30.6354C58.1586 30.6815 57.9654 30.6246 57.7395 30.5513C55.6906 29.8597 53.6308 29.1871 51.5874 28.4846C49.1874 27.66 46.7984 26.8138 44.4039 25.9811C44.2135 25.916 43.9006 25.9079 43.9359 25.6963C43.9659 25.5065 44.2597 25.4956 44.4774 25.4848C47.5059 25.3437 50.2269 24.4216 52.771 23.1007C55.5764 21.6442 57.9817 19.8161 59.9844 17.5947C60.6673 16.8353 61.3503 16.0812 61.9789 15.2892C62.1095 15.1238 62.2346 14.9502 62.5557 15.0885C64.4631 15.9049 66.1447 15.5686 67.8181 14.5081C69.9731 13.1438 71.9431 11.6005 74.0574 10.201C74.6043 9.83753 75.1539 9.47137 75.8478 9.31405C76.4165 9.18386 76.5362 9.26252 76.5416 9.71276ZM65.976 16.659C67.1515 17.1445 68.0875 16.9627 68.9446 16.5884C71.3772 15.5198 73.0968 13.8219 74.4927 11.8826C74.792 11.4676 75.358 11.1232 75.2927 10.342C72.7431 13.1031 69.8616 15.292 65.976 16.659ZM75.494 10.163C75.4777 10.1955 75.4396 10.2335 75.4505 10.2552C75.4614 10.2769 75.5185 10.2851 75.5566 10.2986C75.573 10.2661 75.611 10.2281 75.6002 10.2064C75.5893 10.182 75.5321 10.1766 75.494 10.163Z" fill="#EDC9CC"/>
<path d="M30.7989 19.4879C29.2997 19.7347 27.882 19.2899 26.4508 19.081C25.5066 18.9427 24.7066 18.3352 23.8958 17.8768C22.5026 17.0875 21.1612 16.2386 19.8769 15.3272C19.7299 15.2242 19.5857 15.1129 19.4469 15.0017C19.1259 14.7441 19.1585 14.5732 19.6075 14.4566C20.6333 14.1908 21.6754 13.9548 22.6713 13.6212C24.2985 13.076 25.9093 12.4685 27.0821 11.3103C27.6371 10.7624 27.98 10.1088 27.9038 9.34931C27.8711 9.01841 27.9718 8.92619 28.4398 8.96145C29.8983 9.06994 31.3567 9.17301 32.8152 9.2815C35.8056 9.50391 38.8068 9.59613 41.8026 9.71818C44.1617 9.81583 46.529 9.74259 48.8935 9.74531C49.182 9.74531 49.4731 9.74802 49.7615 9.74531C50.1833 9.73988 50.186 9.85922 49.9874 10.1413C49.4677 10.8736 48.8201 11.53 48.2024 12.1972C47.0814 13.4096 45.8923 14.5759 44.4366 15.5306C42.306 16.9275 39.9333 17.8876 37.362 18.5684C35.9362 18.9454 34.5131 19.2655 33.0329 19.4445C32.2819 19.5286 31.539 19.4608 30.7989 19.4879Z" fill="#EDC9CC"/>
<path d="M53.3152 48.9706C52.6676 49.7246 51.8431 50.2779 50.9996 50.7987C47.6664 52.8519 43.9196 53.9992 39.8272 54.3925C37.7919 54.5877 35.7512 54.6637 33.7077 54.6203C31.452 54.5742 29.2888 54.1294 27.2045 53.416C26.5379 53.1882 25.8277 53.0472 25.2127 52.7135C25.0985 52.6512 24.9025 52.6593 24.8944 52.5047C24.8862 52.3094 25.1148 52.3203 25.2535 52.2633C27.7895 51.2381 30.32 50.202 32.6846 48.9028C34.2981 48.0186 35.8573 47.0747 37.3103 46.0115C37.6259 45.7809 37.879 45.7321 38.2735 45.8352C40.317 46.3641 42.3632 46.8875 44.423 47.373C47.2691 48.0457 50.1561 48.5583 53.0839 48.8973C53.1465 48.9082 53.2063 48.938 53.3152 48.9706Z" fill="#E8BBBD"/>
<path d="M45.4896 27.2885C46.0474 27.4648 46.6107 27.6302 47.1603 27.8228C50.4854 28.9891 53.7914 30.1987 57.1763 31.2403C57.5681 31.3623 57.7613 31.6553 57.9872 31.9102C60.6945 34.9561 62.2972 38.3845 62.9176 42.1437C63.2169 43.961 63.0972 45.7836 62.9094 47.6009C62.8605 48.0728 62.6183 48.2572 61.9652 48.3223C60.0578 48.5095 58.1695 48.2708 56.2757 48.2871C55.5981 48.2925 55.4049 48.0321 55.4104 47.5032C55.4294 45.9192 55.4757 44.3325 55.3886 42.7513C55.2335 39.9278 54.7655 37.1395 53.2581 34.571C52.0527 32.5178 50.3793 30.7493 48.3031 29.2522C47.3753 28.5849 46.3848 27.9828 45.4896 27.2885Z" fill="#E8BBBD"/>
<path d="M36.5675 45.5341C36.4205 45.667 36.2981 45.7945 36.1566 45.903C34.5104 47.1588 32.6819 48.1976 30.818 49.2065C29.1555 50.1043 27.3569 50.777 25.6372 51.5798C25.1583 51.8022 24.6414 51.9839 24.1189 52.1223C23.523 52.2796 23.1475 51.8212 22.7285 51.6178C20.832 50.6875 19.1341 49.5157 17.6076 48.1921C16.6226 47.3378 15.6512 46.4617 14.8158 45.4934C14.5084 45.1354 14.3451 44.9374 15.0553 44.7014C17.3192 43.9555 19.3109 42.8354 20.9299 41.2866C21.2809 40.9503 21.5802 40.8364 22.1598 41.029C25.9311 42.2983 29.784 43.3751 33.6152 44.5088C34.407 44.7421 35.2097 44.9537 35.9988 45.1923C36.2138 45.252 36.4559 45.3117 36.5675 45.5341Z" fill="#EDC9CC"/>
<path d="M60.3925 32.3306C61.5735 32.6453 62.7272 32.9083 63.8428 33.2609C65.3965 33.7519 66.9828 34.1533 68.58 34.5249C69.6875 34.7825 70.7704 35.127 71.9214 35.2463C72.3105 35.287 72.3948 35.4932 72.3051 35.7698C71.9105 36.9985 71.4751 38.2055 70.8874 39.3907C69.9514 41.2785 68.7052 42.9954 67.3256 44.6553C66.6399 45.4826 65.859 46.2529 64.9747 46.9445C64.874 47.0231 64.8142 47.1778 64.64 47.1018C64.4822 47.0367 64.5312 46.8875 64.5393 46.7736C64.5774 46.2908 64.6536 45.808 64.6699 45.3225C64.7951 41.9267 63.9516 38.6964 62.3598 35.5881C61.8728 34.6388 61.2796 33.741 60.6293 32.8677C60.515 32.7185 60.3735 32.5829 60.3925 32.3306Z" fill="#EDC9CC"/>
<path d="M59.081 30.9799C62.4387 30.2286 65.1134 28.81 67.5596 27.028C68.8031 26.1221 69.867 25.0779 70.9418 24.0418C71.0316 23.955 71.0724 23.7977 71.2575 23.8384C71.4153 23.8736 71.4506 24.0038 71.4697 24.1286C71.8071 26.2496 72.3622 28.3435 72.5254 30.4917C72.6152 31.6688 72.6098 32.8432 72.6261 34.0176C72.6343 34.6198 72.4982 34.674 71.8017 34.5221C68.1446 33.7301 64.5774 32.6913 61.0129 31.6552C60.4061 31.4816 59.8293 31.2457 59.081 30.9799Z" fill="#E7BCBD"/>
<path d="M26.3175 9.64767C26.3202 10.8872 25.5202 11.7416 24.3584 12.3735C22.7693 13.236 20.968 13.6836 19.183 14.1582C18.9681 14.2152 18.7749 14.2342 18.7912 13.9846C18.8647 12.8482 17.8797 12.0996 17.3436 11.1937C16.7967 10.2688 16.2579 9.34389 15.7573 8.40001C15.4961 7.90366 15.6729 7.58361 16.2552 7.39374C16.5464 7.29881 16.8348 7.19846 17.1259 7.10082C17.6783 6.91909 18.062 6.84586 18.4157 7.47511C18.8266 8.20743 19.8442 8.20201 20.6986 8.28609C22.3394 8.44612 23.9801 8.6197 25.6291 8.71735C26.4862 8.76346 26.2984 9.22455 26.3175 9.64767Z" fill="#E7BCBD"/>
<path d="M9.31401 35.5067C10.3915 36.0899 11.3792 36.692 12.454 37.1802C14.824 38.2543 17.1913 39.3338 19.7082 40.1556C20.4973 40.4133 20.5109 40.5055 19.9558 41.01C18.6089 42.2332 17.1886 43.3751 15.3709 44.1047C13.9832 44.6607 13.9669 44.6661 13.1561 43.6002C11.382 41.2676 10.0079 38.7859 9.2868 36.0682C9.24598 35.9108 9.18884 35.7562 9.31401 35.5067Z" fill="#E7BCBD"/>
<path d="M61.3966 49.3015C54.8744 53.3374 47.6936 55.3309 39.4681 54.9539C43.155 54.4847 46.5427 53.7144 49.6609 52.2334C51.3235 51.4469 52.8118 50.4596 54.1995 49.3638C54.4526 49.1631 54.6893 48.9651 55.073 49.0275C57.0974 49.3448 59.1463 49.2499 61.1898 49.2662C61.2333 49.2662 61.2796 49.2798 61.3966 49.3015Z" fill="#ECCBCD"/>
<path d="M42.9428 4.73567C42.6788 4.73567 42.404 4.77365 42.151 4.72754C41.6775 4.64074 41.1279 4.7411 40.7388 4.57294C40.1946 4.33697 40.7061 3.85689 40.6571 3.48259C40.5075 2.34071 39.5769 1.68434 38.5184 2.03151C38.0205 2.19425 37.8191 2.49531 37.7484 2.89945C37.694 3.2195 37.6259 3.53955 37.6096 3.8596C37.596 4.13897 37.4844 4.26645 37.1389 4.25831C36.7906 4.25017 36.5811 4.14168 36.592 3.82977C36.6083 3.30629 36.5511 2.78553 36.709 2.25934C37.147 0.786565 37.8953 0.241393 39.9007 0.0189846C41.0598 -0.111206 42.619 0.653663 43.1958 1.65179C43.6475 2.43022 44.0203 3.2195 44.1672 4.101C44.2625 4.66515 44.1264 4.80077 43.5169 4.74923C43.3264 4.73296 43.1332 4.74652 42.94 4.74652C42.9428 4.73839 42.9428 4.73839 42.9428 4.73567Z" fill="#ECCBCD"/>
<path d="M80 12.8753C80.0245 14.6464 79.0341 16.0541 77.7198 17.3343C76.9307 18.1019 75.9702 18.7148 75.0369 19.3522C74.909 19.439 74.7703 19.5665 74.6043 19.4282C74.4764 19.3224 74.5907 19.2112 74.656 19.1027C76.1988 16.5694 77.2572 13.9005 77.8232 11.0933C77.9048 10.6973 77.9402 10.2932 77.9974 9.89174C78.0164 9.75613 77.9647 9.58254 78.1851 9.53914C78.3729 9.50117 78.4871 9.63678 78.6123 9.729C79.3279 10.2633 79.698 10.9577 79.8585 11.7334C79.9347 12.1077 79.9537 12.4928 80 12.8753Z" fill="#E7BCBD"/>
<path d="M59.0211 8.24809C59.0048 8.23724 58.9885 8.22639 58.9749 8.21554C58.9939 8.20741 59.0129 8.19113 59.0293 8.19384C59.0456 8.19384 59.0619 8.21283 59.0783 8.22368C59.0592 8.23182 59.0402 8.23995 59.0211 8.24809Z" fill="#F6F6F6"/>
<path d="M13.2295 16.9627C10.5194 16.8841 5.80661 13.2387 5.86647 11.294C8.07048 13.4232 10.2228 15.5008 13.2295 16.9627Z" fill="#F9F0F1"/>
<path d="M65.976 16.6589C69.8616 15.2919 72.7431 13.1031 75.29 10.342C75.3553 11.1231 74.7893 11.4676 74.49 11.8826C73.0969 13.8219 71.3772 15.5198 68.9419 16.5884C68.0875 16.9627 67.1515 17.1444 65.976 16.6589Z" fill="#F9F0F1"/>
<path d="M75.4941 10.1603C75.5322 10.1738 75.5893 10.182 75.6002 10.2037C75.6111 10.2254 75.573 10.2661 75.5566 10.2959C75.5186 10.2823 75.4614 10.2742 75.4505 10.2525C75.4396 10.2308 75.4777 10.1928 75.4941 10.1603Z" fill="#F9F0F1"/>
</g>
<defs>
<clipPath id="clip0_4_21">
<rect width="80" height="55" fill="white"/>
</clipPath>
</defs>
</svg>
